<?xml version="1.0" standalone="no"?>
<!DOCTYPE svg PUBLIC "-//W3C//DTD SVG 20010904//EN"
 "http://www.w3.org/TR/2001/REC-SVG-20010904/DTD/svg10.dtd">
<svg version="1.0" xmlns="http://www.w3.org/2000/svg"
 width="512.000000pt" height="512.000000pt" viewBox="0 0 512.000000 512.000000"
 preserveAspectRatio="xMidYMid meet">
<metadata>
Created by potrace 1.11, written by Peter Selinger 2001-2013
</metadata>
<g transform="translate(0.000000,512.000000) scale(0.100000,-0.100000)"
fill="#000000" stroke="none">
<path d="M0 2560 l0 -2560 2560 0 2560 0 0 2560 0 2560 -2560 0 -2560 0 0
-2560z m1818 1423 c6 -27 25 -128 43 -225 l32 -178 1081 0 1082 0 -126 -960
-125 -960 -902 0 -903 0 -5 23 c-3 12 -66 416 -140 897 -117 753 -180 1137
-202 1228 l-5 22 -244 0 -244 0 0 100 0 100 324 0 324 0 10 -47z m473 -2499
c94 -48 112 -183 35 -260 -89 -89 -243 -48 -275 74 -38 139 110 254 240 186z
m1390 0 c94 -48 112 -183 35 -260 -89 -89 -243 -48 -275 74 -38 139 110 254
240 186z"/>
<path d="M1930 3371 c0 -5 52 -343 115 -751 63 -409 115 -747 115 -752 0 -4
332 -8 738 -8 l738 0 97 753 c54 413 98 755 97 760 0 10 -1900 9 -1900 -2z
m915 -376 l0 -100 -205 -3 -206 -2 10 -80 9 -80 196 -2 196 -3 3 -287 2 -288
-254 0 -254 0 -6 33 c-3 17 -8 62 -12 100 l-7 67 162 0 161 0 0 90 0 90 -175
0 c-96 0 -175 2 -175 4 0 2 -16 122 -35 267 -19 145 -35 272 -35 282 0 16 20
17 313 15 l312 -3 0 -100z m731 33 c-3 -40 -10 -86 -14 -103 l-8 -30 -187 -3
-187 -2 0 -270 0 -270 156 0 c143 0 155 -1 150 -17 -2 -10 -7 -45 -11 -78 -4
-33 -9 -70 -12 -82 l-5 -23 -244 0 -244 0 0 468 c0 258 3 472 7 475 3 4 141 7
306 7 l300 0 -7 -72z"/>
</g>
</svg>
