<?xml version="1.0" encoding="UTF-8"?>
<svg width="260px" height="72px" viewBox="0 0 260 72" version="1.1" xmlns="http://www.w3.org/2000/svg" xmlns:xlink="http://www.w3.org/1999/xlink">
    <!-- Generator: Sketch 64 (93537) - https://sketch.com -->
    <title>Logo</title>
    <desc>Created with Sketch.</desc>
    <g id="Page-1" stroke="none" stroke-width="1" fill="none" fill-rule="evenodd">
        <g id="V1b" transform="translate(-27.000000, -27.000000)">
            <g id="Logo" transform="translate(27.000000, 31.000000)">
                <g id="simple-commerce-logo" stroke-width="1" fill-rule="evenodd">
                    <polygon id="Path" fill="#041B34" fill-rule="nonzero" points="62.4609971 52.8690909 22.4469208 52.8690909 15.9477565 10.9636364 67.9507331 10.9636364"></polygon>
                    <path d="M0,0 L13.9073314,0 L15.9477565,10.9636364 M15.9477565,10.9636364 L22.4469208,52.8690909 L62.4609971,52.8690909 L67.9507331,10.9636364 L15.9477565,10.9636364 Z" id="Shape" stroke="#00CDE0" stroke-width="6.4"></path>
                    <ellipse id="Oval" stroke="#00CDE0" stroke-width="2.24" fill="#FFFFFF" fill-rule="nonzero" cx="59.5331378" cy="63.1018182" rx="3.29384164" ry="3.28909091"></ellipse>
                    <ellipse id="Oval" stroke="#00CDE0" stroke-width="2.24" fill="#FFFFFF" fill-rule="nonzero" cx="25.6187683" cy="63.1018182" rx="3.29384164" ry="3.28909091"></ellipse>
                    <polyline id="Path" stroke="#FFFFFF" stroke-width="6.4" points="41.1120235 22.78 28.3026393 22.78 29.4005865 31.7879673 38.6721408 31.7879673 38.6721408 40.9309091 27.0826979 40.9309091"></polyline>
                    <polyline id="Path" stroke="#FFFFFF" stroke-width="6.4" points="60.9970674 22.78 46.7237537 22.78 46.7237537 40.9309091 57.8252199 40.9309091"></polyline>
                    <polygon id="Rectangle" fill="#041B34" fill-rule="nonzero" transform="translate(60.102885, 32.087971) rotate(7.500000) translate(-60.102885, -32.087971) " points="57.6662044 15.2771033 62.5458499 15.2761925 62.5395654 48.8988381 57.6599199 48.8997489"></polygon>
                    <polygon id="Rectangle" fill="#041B34" fill-rule="nonzero" transform="translate(24.867469, 32.090547) rotate(-7.500000) translate(-24.867469, -32.090547) " points="22.4245039 15.2787693 27.3041494 15.2796801 27.3104339 48.9023256 22.4307884 48.9014148"></polygon>
                </g>
                <path d="M101.78973,21.6806957 L96.7156736,19.9002371 C94.8418015,19.2219672 93.5033213,18.301458 92.7002333,17.1387095 C91.8971452,15.9759611 91.4956012,14.4498537 91.4956012,12.5603874 C91.4956012,9.79885985 92.1648412,7.95784146 93.5033213,7.03733226 C94.8661375,6.09259913 97.2510657,5.62023257 100.658106,5.62023257 C103.870458,5.62023257 106.632594,5.94725557 108.944515,6.60130158 L108.579475,10.3802341 C106.462242,10.3075623 103.833954,10.2712264 100.69461,10.2712264 C99.2344498,10.2712264 98.2610098,10.404458 97.7742897,10.6709212 C97.2875697,10.9131605 97.0442097,11.5429825 97.0442097,12.5603874 C97.0442097,13.3840009 97.2267297,13.9774871 97.5917697,14.340846 C97.9568097,14.7042049 98.6503858,15.0554519 99.6724979,15.3945868 L104.454522,17.0297018 C106.401402,17.7079718 107.776387,18.6405929 108.579475,19.8275653 C109.382563,20.9903138 109.784107,22.5164211 109.784107,24.4058874 C109.784107,27.2158628 109.102699,29.129553 107.739883,30.1469579 C106.377066,31.1401389 103.943466,31.6367294 100.439082,31.6367294 C97.5917697,31.6367294 94.7079535,31.3218183 91.7876332,30.6919963 L92.1161692,26.6950484 C97.2997377,26.8161681 100.074042,26.8767279 100.439082,26.8767279 C101.923578,26.8767279 102.909186,26.7192724 103.395906,26.4043613 C103.906962,26.0894503 104.16249,25.4354043 104.16249,24.4422233 C104.16249,23.5943859 103.992138,23.0008997 103.651434,22.6617647 C103.31073,22.2984058 102.690162,21.9713828 101.78973,21.6806957 Z M113.545236,5.32954545 L115.9545,5.32954545 C117.000948,5.32954545 117.524172,5.85035987 117.524172,6.8919887 L117.524172,8.85412673 C117.524172,9.89575556 117.000948,10.41657 115.9545,10.41657 L113.545236,10.41657 C112.498788,10.41657 111.975564,9.89575556 111.975564,8.85412673 L111.975564,6.8919887 C111.975564,5.85035987 112.498788,5.32954545 113.545236,5.32954545 Z M117.451164,31.1643628 L112.085076,31.1643628 L112.085076,13.2507693 L117.451164,13.2507693 L117.451164,31.1643628 Z M124.874862,13.2507693 L125.239902,15.8669534 C127.527486,13.7836957 129.81507,12.7420669 132.102654,12.7420669 C134.536255,12.7420669 136.081591,13.7110239 136.738663,15.648938 C138.855895,13.7110239 141.046135,12.7420669 143.309383,12.7420669 C144.939895,12.7420669 146.181032,13.1659856 147.032792,14.013823 C147.884552,14.8616604 148.310432,16.0970807 148.310432,17.7200837 L148.310432,31.1643628 L142.944343,31.1643628 L142.944343,19.3915347 C142.944343,18.616369 142.810495,18.0713307 142.542799,17.7564196 C142.275103,17.4415086 141.776215,17.2840531 141.046135,17.2840531 C140.462071,17.2840531 139.902343,17.3930607 139.366951,17.6110761 C138.831559,17.8290914 138.052807,18.2530101 137.030695,18.8828322 L137.030695,31.1643628 L131.847126,31.1643628 L131.847126,19.3915347 C131.847126,18.616369 131.688942,18.0713307 131.372574,17.7564196 C131.080542,17.4415086 130.593822,17.2840531 129.912414,17.2840531 C128.96331,17.2840531 127.636998,17.8048675 125.933478,18.8464963 L125.933478,31.1643628 L120.567389,31.1643628 L120.567389,13.2507693 L124.874862,13.2507693 Z M155.535487,13.2507693 L155.937031,15.8669534 C156.691447,14.9706681 157.725727,14.2318384 159.039871,13.6504641 C160.378351,13.0690899 161.728999,12.7784028 163.091815,12.7784028 C167.228936,12.7784028 169.297496,15.9759611 169.297496,22.3710776 C169.297496,25.8108751 168.737768,28.2211558 167.618312,29.6019196 C166.523192,30.9584595 164.795335,31.6367294 162.434743,31.6367294 C160.001143,31.6367294 157.993423,31.0553552 156.411583,29.8926067 C156.533263,31.1280269 156.569767,32.411895 156.521095,33.744211 L156.521095,38.0681818 L151.155006,38.0681818 L151.155006,13.2507693 L155.535487,13.2507693 Z M156.521095,18.7011528 L156.521095,26.9130638 C158.419303,27.3975423 159.782119,27.6397816 160.609543,27.6397816 C161.802007,27.6397816 162.617263,27.3006466 163.055311,26.6223767 C163.517695,25.9441067 163.748887,24.527007 163.748887,22.3710776 C163.748887,20.263596 163.542031,18.8464963 163.128319,18.1197785 C162.714607,17.3688368 161.984527,16.993366 160.938079,16.993366 C159.745615,16.993366 158.273287,17.5626282 156.521095,18.7011528 Z M176.985543,5.72924024 L176.985543,25.3142846 C176.985543,26.5254809 177.666951,27.1310791 179.029767,27.1310791 L180.489927,27.1310791 L181.110495,30.8736757 C180.185727,31.3581542 178.749903,31.6003935 176.803023,31.6003935 C175.196847,31.6003935 173.931375,31.1764748 173.006607,30.3286374 C172.081839,29.456576 171.619455,28.2332677 171.619455,26.6587125 L171.619455,5.72924024 L176.985543,5.72924024 Z M193.527332,24.0061926 L187.02962,24.0061926 C187.199972,25.3142846 187.589348,26.1984579 188.197748,26.6587125 C188.830484,27.0947432 189.864764,27.3127586 191.300588,27.3127586 C193.223132,27.3127586 195.462044,27.179527 198.017324,26.9130638 L198.528381,30.2559656 C196.654508,31.1522509 194.038388,31.6003935 190.68002,31.6003935 C187.297316,31.6003935 184.888051,30.8736757 183.452227,29.4202401 C182.016403,27.9668046 181.298491,25.5686359 181.298491,22.225734 C181.298491,18.7132647 181.992067,16.2545362 183.379219,14.8495485 C184.790707,13.4445608 187.1513,12.7420669 190.460996,12.7420669 C193.454324,12.7420669 195.620228,13.2628813 196.958708,14.3045101 C198.297188,15.321915 198.978597,16.8843583 199.002933,18.9918399 C199.002933,20.6632908 198.564885,21.922935 197.688788,22.7707724 C196.837028,23.5943859 195.449876,24.0061926 193.527332,24.0061926 Z M186.920107,20.7722985 L192.030668,20.7722985 C192.68774,20.7722985 193.125788,20.6148429 193.344812,20.2999319 C193.588172,19.9850209 193.709852,19.5247663 193.709852,18.9191681 C193.709852,18.0713307 193.490828,17.4899564 193.05278,17.1750454 C192.614732,16.8359104 191.811644,16.666343 190.643516,16.666343 C189.256364,16.666343 188.30726,16.9449181 187.796204,17.5020684 C187.285148,18.0349948 186.993116,19.1250715 186.920107,20.7722985 Z" id="Shape" fill="#FFFFFF" fill-rule="nonzero"></path>
                <path d="M109.721195,58.8134774 L110.196964,62.904609 C108.001109,63.5804302 105.305087,63.9183408 102.108899,63.9183408 C98.2051572,63.9183408 95.4603388,62.952882 93.8744437,61.0219644 C92.2885487,59.0910468 91.4956012,55.7481458 91.4956012,50.9932613 C91.4956012,46.2383768 92.2885487,42.8954757 93.8744437,40.9645582 C95.4603388,39.0336406 98.2051572,38.0681818 102.108899,38.0681818 C104.939112,38.0681818 107.464344,38.3457512 109.684597,38.90089 L109.208829,43.0282263 C107.23256,42.907544 104.865916,42.8472028 102.108899,42.8472028 C100.27902,42.8472028 99.0225031,43.4264781 98.3393483,44.5850286 C97.6805919,45.7194427 97.3512137,47.8555202 97.3512137,50.9932613 C97.3512137,54.1310023 97.6805919,56.2791481 98.3393483,57.4376987 C99.0225031,58.5721127 100.27902,59.1393198 102.108899,59.1393198 C105.500274,59.1393198 108.037706,59.0307057 109.721195,58.8134774 Z M120.515041,45.1280992 C123.882018,45.1280992 126.260861,45.8521933 127.651568,47.3003814 C129.06698,48.7244331 129.774533,51.1501483 129.774533,54.577527 C129.774533,58.0049057 129.06698,60.4306209 127.651568,61.8546726 C126.260861,63.2545878 123.882018,63.9545455 120.515041,63.9545455 C117.123665,63.9545455 114.720424,63.2545878 113.305318,61.8546726 C111.91461,60.4306209 111.219256,58.0049057 111.219256,54.577527 C111.219256,51.1260119 111.91461,48.6882284 113.305318,47.2641767 C114.720424,45.840125 117.123665,45.1280992 120.515041,45.1280992 Z M120.515041,49.1468214 C119.075536,49.1468214 118.1118,49.5088684 117.623832,50.2329625 C117.135864,50.9570566 116.891881,52.4052448 116.891881,54.577527 C116.891881,56.7015363 117.135864,58.125588 117.623832,58.8496821 C118.1118,59.5737762 119.075536,59.9358233 120.515041,59.9358233 C121.905749,59.9358233 122.845087,59.5737762 123.333054,58.8496821 C123.84542,58.125588 124.101603,56.7015363 124.101603,54.577527 C124.101603,52.4293812 123.85762,50.9932613 123.369652,50.2691672 C122.881684,49.5209366 121.930147,49.1468214 120.515041,49.1468214 Z M136.322145,45.634965 L136.68812,48.2417038 C138.981569,46.1659674 141.275017,45.1280992 143.568465,45.1280992 C146.008304,45.1280992 147.557601,46.093558 148.216358,48.0244755 C150.339017,46.093558 152.534872,45.1280992 154.803922,45.1280992 C156.438613,45.1280992 157.682931,45.5504874 158.536875,46.3952638 C159.390818,47.2400403 159.81779,48.4710002 159.81779,50.0881437 L159.81779,63.4838843 L154.437946,63.4838843 L154.437946,51.7535601 C154.437946,50.981193 154.303755,50.4381225 154.035372,50.1243484 C153.76699,49.8105743 153.266823,49.6536872 152.534872,49.6536872 C151.949311,49.6536872 151.388148,49.7623013 150.851383,49.9795296 C150.314619,50.1967578 149.53387,50.619146 148.509138,51.2466942 L148.509138,63.4838843 L143.312282,63.4838843 L143.312282,51.7535601 C143.312282,50.981193 143.153693,50.4381225 142.836514,50.1243484 C142.543733,49.8105743 142.055765,49.6536872 141.37261,49.6536872 C140.421073,49.6536872 139.091361,50.1726213 137.383474,51.2104895 L137.383474,63.4838843 L132.00363,63.4838843 L132.00363,45.634965 L136.322145,45.634965 Z M166.988475,45.634965 L167.354451,48.2417038 C169.647899,46.1659674 171.941347,45.1280992 174.234796,45.1280992 C176.674634,45.1280992 178.223932,46.093558 178.882688,48.0244755 C181.005348,46.093558 183.201202,45.1280992 185.470252,45.1280992 C187.104944,45.1280992 188.349262,45.5504874 189.203205,46.3952638 C190.057149,47.2400403 190.48412,48.4710002 190.48412,50.0881437 L190.48412,63.4838843 L185.104276,63.4838843 L185.104276,51.7535601 C185.104276,50.981193 184.970085,50.4381225 184.701703,50.1243484 C184.433321,49.8105743 183.933154,49.6536872 183.201202,49.6536872 C182.615641,49.6536872 182.054478,49.7623013 181.517714,49.9795296 C180.980949,50.1967578 180.200201,50.619146 179.175469,51.2466942 L179.175469,63.4838843 L173.978613,63.4838843 L173.978613,51.7535601 C173.978613,50.981193 173.820023,50.4381225 173.502844,50.1243484 C173.210064,49.8105743 172.722096,49.6536872 172.038941,49.6536872 C171.087404,49.6536872 169.757692,50.1726213 168.049805,51.2104895 L168.049805,63.4838843 L162.669961,63.4838843 L162.669961,45.634965 L166.988475,45.634965 Z M204.827626,56.3515575 L198.313257,56.3515575 C198.484046,57.6549269 198.87442,58.535908 199.48438,58.994501 C200.118738,59.4289574 201.155669,59.6461856 202.595174,59.6461856 C204.522646,59.6461856 206.767298,59.513435 209.329128,59.2479339 L209.841494,62.5787667 C207.962819,63.4718161 205.339992,63.9183408 201.973015,63.9183408 C198.58164,63.9183408 196.166199,63.1942467 194.726695,61.7460585 C193.28719,60.2978703 192.567438,57.9083598 192.567438,54.577527 C192.567438,51.0777389 193.262791,48.6278873 194.653499,47.227972 C196.068606,45.8280568 198.435249,45.1280992 201.75343,45.1280992 C204.754431,45.1280992 206.925887,45.6470333 208.267798,46.6849015 C209.60971,47.6986332 210.292864,49.2554355 210.317263,51.3553083 C210.317263,53.0207247 209.878092,54.2758211 208.99975,55.1205976 C208.145807,55.9412376 206.755099,56.3515575 204.827626,56.3515575 Z M198.203465,53.1293388 L203.327125,53.1293388 C203.985882,53.1293388 204.425053,52.9724518 204.644638,52.6586777 C204.888622,52.3449036 205.010614,51.8863107 205.010614,51.2828989 C205.010614,50.4381225 204.791029,49.8588472 204.351858,49.5450731 C203.912687,49.2071625 203.10754,49.0382072 201.936417,49.0382072 C200.54571,49.0382072 199.594172,49.3157766 199.081806,49.8709154 C198.56944,50.4019178 198.27666,51.4880589 198.203465,53.1293388 Z M225.306716,45.1280992 L224.757752,50.0881437 L223.293849,50.0881437 C222.098328,50.0881437 220.25625,50.4984637 217.767615,51.3191036 L217.767615,63.4838843 L212.351173,63.4838843 L212.351173,45.634965 L216.559895,45.634965 L217.035663,48.2417038 C219.4999,46.1659674 221.939739,45.1280992 224.355179,45.1280992 L225.306716,45.1280992 Z M240.969259,59.2479339 L241.445028,62.7235855 C239.590751,63.520089 237.260705,63.9183408 234.454891,63.9183408 C231.13671,63.9183408 228.794465,63.2183831 227.428156,61.8184679 C226.086244,60.3944162 225.415289,57.968701 225.415289,54.5413223 C225.415289,51.0898072 226.098444,48.664092 227.464753,47.2641767 C228.831063,45.840125 231.185507,45.1280992 234.528086,45.1280992 C237.260705,45.1280992 239.480958,45.5022145 241.188845,46.250445 L240.603284,49.5812778 C237.968258,49.5330049 236.248172,49.5088684 235.443025,49.5088684 C233.783935,49.5088684 232.637211,49.8588472 232.002853,50.5588048 C231.392893,51.2587624 231.087913,52.5862683 231.087913,54.5413223 C231.087913,56.4963764 231.392893,57.8238822 232.002853,58.5238398 C232.637211,59.2237974 233.783935,59.5737762 235.443025,59.5737762 C237.565685,59.5737762 239.407763,59.4651621 240.969259,59.2479339 Z M254.510363,56.3515575 L247.995994,56.3515575 C248.166783,57.6549269 248.557157,58.535908 249.167117,58.994501 C249.801475,59.4289574 250.838406,59.6461856 252.277911,59.6461856 C254.205383,59.6461856 256.450035,59.513435 259.011865,59.2479339 L259.524231,62.5787667 C257.645556,63.4718161 255.022729,63.9183408 251.655752,63.9183408 C248.264377,63.9183408 245.848936,63.1942467 244.409432,61.7460585 C242.969927,60.2978703 242.250175,57.9083598 242.250175,54.577527 C242.250175,51.0777389 242.945529,48.6278873 244.336237,47.227972 C245.751343,45.8280568 248.117986,45.1280992 251.436167,45.1280992 C254.437168,45.1280992 256.608624,45.6470333 257.950536,46.6849015 C259.292447,47.6986332 259.975602,49.2554355 260,51.3553083 C260,53.0207247 259.560829,54.2758211 258.682487,55.1205976 C257.828544,55.9412376 256.437836,56.3515575 254.510363,56.3515575 Z M247.886202,53.1293388 L253.009863,53.1293388 C253.668619,53.1293388 254.10779,52.9724518 254.327375,52.6586777 C254.571359,52.3449036 254.693351,51.8863107 254.693351,51.2828989 C254.693351,50.4381225 254.473766,49.8588472 254.034595,49.5450731 C253.595424,49.2071625 252.790277,49.0382072 251.619155,49.0382072 C250.228447,49.0382072 249.27691,49.3157766 248.764544,49.8709154 C248.252177,50.4019178 247.959397,51.4880589 247.886202,53.1293388 Z" id="Shape" fill="#FFFFFF" fill-rule="nonzero"></path>
            </g>
        </g>
    </g>
</svg>