<?xml version="1.0" encoding="UTF-8"?>
<svg width="662px" height="32px" viewBox="0 0 662 32" version="1.1" xmlns="http://www.w3.org/2000/svg" xmlns:xlink="http://www.w3.org/1999/xlink">
    <!-- Generator: Sketch 64 (93537) - https://sketch.com -->
    <title>straight-dashed</title>
    <desc>Created with Sketch.</desc>
    <g id="Page-1" stroke="none" stroke-width="1" fill="none" fill-rule="evenodd">
        <g id="straight-dashed" transform="translate(331.500000, 16.000000) rotate(90.000000) translate(-331.500000, -16.000000) translate(316.000000, -315.000000)" fill="#020202" fill-rule="nonzero">
            <path d="M4.65,91.42 C3.57,85.42 2.46,80.23 1.83,75.07 C1.18576851,70.2581487 0.914959671,65.4036495 1.02,60.55 C1.02,59.56 3.84,57.91 5.28,58 C6.72,58.09 9.27,60.01 9.3,61 C9.3,69.55 8.97,78.13 8.73,86.71 C8.83209765,88.191233 8.78183407,89.6790349 8.58,91.15 C8.4,91.78 6.96,92.32 6.12,92.29 C5.28,92.26 4.74,91.48 4.65,91.42 Z" id="Path"></path>
            <path d="M7.62,114.97 C10.62,115.99 10.44,118.57 10.62,120.76 C10.9348388,125.47475 10.9348388,130.20525 10.62,134.92 C10.1490057,138.108952 9.89841165,141.326579 9.87,144.55 C10.11,146.92 9.24,148.15 6.87,148.960089 C6.40490982,148.965217 5.96716702,148.740733 5.7,148.36 C4.38,140.77 4.38,133.66 3.12,126.07 C2.85,124.57 2.4,123.07 2.01,121.6 C1.75833506,119.954101 2.2312076,118.279822 3.30671957,117.008763 C4.38223154,115.737703 5.95514824,114.994231 7.62,114.97 L7.62,114.97 Z" id="Path"></path>
            <path d="M3,29.53 C2.34,25.12 1.8,17.68 1.32,14.53 C0.656912563,11.5690817 0.235525885,8.55917689 0.06,5.53 C0.325231643,3.76356954 1.20735864,2.14810805 2.55,0.97 C2.91,0.61 4.53,1.6 5.55,1.99 C9.9,3.67 8.55,7.48 8.55,10.78 C8.55,14.08 7.41,23.56 7.65,27.04 C7.95,31.09 7.05,31.63 3.45,30.04 C3,30.1 2.7,29.08 3,29.53 Z" id="Path"></path>
            <path d="M8.79,262.48 C7.62,256.48 6.48,251.29 5.79,246.13 C5.08521228,241.322862 4.75422028,236.468313 4.8,231.61 C4.8,230.65 7.59,228.94 9.03,229.06 C10.47,229.18 13.05,231.01 13.08,232.06 C13.29,240.64 13.08,249.22 12.84,257.8 C13.0059581,259.275348 13.0059581,260.764652 12.84,262.24 C12.69,262.84 11.25,263.41 10.41,263.41 C9.57,263.41 9,262.54 8.79,262.48 Z" id="Path"></path>
            <path d="M12,285.97 C15,286.96 15,289.54 15,291.73 C15.3151063,296.444741 15.3151063,301.175259 15,305.89 C14.5779504,309.082302 14.3774708,312.299999 14.4,315.52 C14.67,317.89 13.8,319.12 11.4,319.96 C11.07,319.96 10.26,319.66 10.23,319.39 C8.79,311.8 8.73,304.72 7.23,297.13 C6.93,295.63 6.45,294.13 6.09,292.69 C5.78734248,290.975734 6.28038718,289.216838 7.42999953,287.909665 C8.57961188,286.602491 10.2611159,285.888803 12,285.97 L12,285.97 Z" id="Path"></path>
            <path d="M6.33,200.59 C5.58,196.18 4.95,188.77 4.44,185.59 C3.74994519,182.629816 3.28858464,179.620943 3.06,176.59 C3.38188362,174.88754 4.2699805,173.343943 5.58,172.21 C5.94,171.85 7.56,172.84 8.58,173.2 C12.96,174.82 11.58,178.66 11.58,181.96 C11.58,185.26 10.59,194.74 10.86,198.22 C11.22,202.27 10.32,202.81 6.72,201.43 C6.3,201.16 6,200.14 6.33,200.59 Z" id="Path"></path>
            <path d="M15,433.45 C13.77,427.45 12.54,422.29 11.76,417.16 C11.026469,412.353834 10.6354839,407.501608 10.59,402.64 C10.59,401.68 13.38,399.94 14.82,400.03 C16.26,400.12 18.84,401.92 18.9,403.03 C19.2,411.58 18.9,420.16 18.9,428.74 C19.0805714,430.224529 19.0805714,431.725471 18.9,433.21 C18.9,433.81 17.34,434.41 16.5,434.38 C15.66,434.35 15,433.51 15,433.45 Z" id="Path"></path>
            <path d="M18.6,456.96988 C21.6,457.9 21.6,460.51 21.6,462.67 C21.9953303,467.379384 22.0755089,472.109923 21.84,476.83 C21.4481777,480.034451 21.2777736,483.262105 21.33,486.49 C21.63,488.83 20.76,490.09 18.33,490.96 C17.8577209,490.993578 17.402369,490.777286 17.13,490.39 C15.63,482.83 15.45,475.75 14.13,468.19 C13.83,466.69 13.35,465.19 12.93,463.75 C12.6166084,462.068935 13.0704126,460.335751 14.1674275,459.023977 C15.2644424,457.712203 16.8900083,456.958944 18.6,456.96988 L18.6,456.96988 Z" id="Path"></path>
            <path d="M11.79,371.59 C11.01,367.21 10.29,359.8 9.75,356.59 C9.02160553,353.632562 8.52014726,350.623812 8.25,347.59 C8.56047431,345.888666 9.42547815,344.337988 10.71,343.18 C11.07,342.79 12.69,343.75 13.71,344.14 C18.12,345.7 16.71,349.54 16.89,352.84 C17.07,356.14 16.05,365.65 16.38,369.1 C16.77,373.18 15.9,373.72 12.27,372.37 C11.79,372.19 11.55,371.14 11.79,371.59 Z" id="Path"></path>
            <path d="M23.4,604.33 C22.08,598.33 20.79,593.23 19.95,588.07 C19.1555767,583.278303 18.7044287,578.435982 18.6,573.58 C18.6,572.62 21.36,570.85 22.77,570.91 C24.18,570.97 27,572.77 27,573.97 C27.42,582.55 27.3,591.13 27.39,599.71 C27.5549551,601.185404 27.5549551,602.674596 27.39,604.15 C27.39,604.78 25.83,605.38 24.99,605.38 C24.15,605.38 23.49,604.39 23.4,604.33 Z" id="Path"></path>
            <path d="M27.24,627.76 C30.24,628.69 30.24,631.27 30.45,633.46 C30.895443,638.156003 31.0257348,642.876576 30.84,647.59 C30.4827385,650.796775 30.3624123,654.025528 30.48,657.25 C30.78,659.62 29.94,660.85 27.48,661.78 C27.0099448,661.80215 26.559822,661.588341 26.28,661.21 C24.69,653.68 24.42,646.6 22.86,639.04 C22.56,637.54 22.02,636.04 21.6,634.63 C21.279797,632.943811 21.7241855,631.20246 22.8132328,629.875907 C23.9022801,628.549355 25.5237368,627.774331 27.24,627.76 L27.24,627.76 Z" id="Path"></path>
            <path d="M19.38,542.53 C18.54,538.15 17.76,530.74 17.16,527.53 C16.3740658,524.580887 15.8421224,521.569887 15.57,518.53 C15.8354101,516.817977 16.6830516,515.24984 17.97,514.09 C18.3,513.7 19.95,514.66 20.97,515.02 C25.38,516.52 23.97,520.39 24.27,523.66 C24.57,526.93 23.58,536.5 23.94,539.95 C24.39,544 23.52,544.57 19.86,543.25 C19.38,543.1 19.14,542.08 19.38,542.53 Z" id="Path"></path>
        </g>
    </g>
</svg>